<svg xmlns="http://www.w3.org/2000/svg" version="1.1" xmlns:xlink="http://www.w3.org/1999/xlink" xmlns:svgjs="http://svgjs.com/svgjs" width="1440" height="560" preserveAspectRatio="none" viewBox="0 0 1440 560"><g mask="url(&quot;#SvgjsMask1006&quot;)" fill="none"><path d="M0 521.05L10 555.77L20 498.15L30 516.91L40 531.78L50 503.22L60 541.32L70 512.94L80 524.52L90 511.4L100 443.46L110 415.32L120 433.08L130 452.57L140 403.83L150 398.4L160 396.99L170 345.55L180 389.07L190 324.14L200 303.32L210 242.33L220 272.66L230 294.29L240 323.71L250 295.97L260 356.62L270 334.21L280 399.26L290 342.52L300 399.32L310 433.68L320 387.68L330 419.83L340 483.61L350 502.97L360 539.86L370 523.62L380 541.02L390 523.09L400 525.33L410 513.21L420 449.65L430 494.29L440 542.83L450 495.13L460 548.36L470 519.24L480 534.91L490 543.89L500 548.26L510 537.22L520 493.9L530 435.51L540 369.36L550 409.6L560 364.91L570 339.46L580 370.5L590 311.47L600 303.8L610 261.49L620 237.58L630 303.51L640 260.17L650 215.21L660 209.71L670 149.85L680 133.51L690 178.04L700 221.53L710 221.73L720 167.86L730 210.35L740 193.46L750 134.7L760 147.83L770 140.82L780 116.84L790 176.02L800 173.46L810 166.09L820 182.87L830 212.37L840 180.04L850 140.41L860 208.96L870 175.94L880 168.75L890 144.37L900 188.18L910 124.78L920 153L930 112.08L940 96.84L950 154.6L960 159.77L970 155.22L980 94.98L990 130.88L1000 73.46L1010 47.48L1020 64.88L1030 75.13L1040 45.91L1050 21.16L1060 13.93L1070 34.15L1080 64.87L1090 39.81L1100 73.46L1110 105.62L1120 129.96L1130 180.01L1140 229.59L1150 222.21L1160 193.66L1170 246.61L1180 265.14L1190 278.08L1200 333.3L1210 344.18L1220 294.31L1230 319.78L1240 374.83L1250 415.42L1260 356.78L1270 328.76L1280 335.7L1290 342.54L1300 282.4L1310 297.25L1320 265.63L1330 298.23L1340 298.3L1350 235.18L1360 193.31L1370 260.33L1380 212.52L1390 214.69L1400 145.09L1410 76.34L1420 73.59L1430 50.95L1440 87.4" stroke="rgba(239, 240, 242, 1)" stroke-width="2"></path><path d="M0 521.05L10 555.77L20 498.15L30 516.91L40 531.78L50 503.22L60 541.32L70 512.94L80 524.52L90 511.4L100 443.46L110 415.32L120 433.08L130 452.57L140 403.83L150 398.4L160 396.99L170 345.55L180 389.07L190 324.14L200 303.32L210 242.33L220 272.66L230 294.29L240 323.71L250 295.97L260 356.62L270 334.21L280 399.26L290 342.52L300 399.32L310 433.68L320 387.68L330 419.83L340 483.61L350 502.97L360 539.86L370 523.62L380 541.02L390 523.09L400 525.33L410 513.21L420 449.65L430 494.29L440 542.83L450 495.13L460 548.36L470 519.24L480 534.91L490 543.89L500 548.26L510 537.22L520 493.9L530 435.51L540 369.36L550 409.6L560 364.91L570 339.46L580 370.5L590 311.47L600 303.8L610 261.49L620 237.58L630 303.51L640 260.17L650 215.21L660 209.71L670 149.85L680 133.51L690 178.04L700 221.53L710 221.73L720 167.86L730 210.35L740 193.46L750 134.7L760 147.83L770 140.82L780 116.84L790 176.02L800 173.46L810 166.09L820 182.87L830 212.37L840 180.04L850 140.41L860 208.96L870 175.94L880 168.75L890 144.37L900 188.18L910 124.78L920 153L930 112.08L940 96.84L950 154.6L960 159.77L970 155.22L980 94.98L990 130.88L1000 73.46L1010 47.48L1020 64.88L1030 75.13L1040 45.91L1050 21.16L1060 13.93L1070 34.15L1080 64.87L1090 39.81L1100 73.46L1110 105.62L1120 129.96L1130 180.01L1140 229.59L1150 222.21L1160 193.66L1170 246.61L1180 265.14L1190 278.08L1200 333.3L1210 344.18L1220 294.31L1230 319.78L1240 374.83L1250 415.42L1260 356.78L1270 328.76L1280 335.7L1290 342.54L1300 282.4L1310 297.25L1320 265.63L1330 298.23L1340 298.3L1350 235.18L1360 193.31L1370 260.33L1380 212.52L1390 214.69L1400 145.09L1410 76.34L1420 73.59L1430 50.95L1440 87.4L1440 560L0 560z" fill="url(#SvgjsLinearGradient1007)"></path></g><defs><mask id="SvgjsMask1006"><rect width="1440" height="560" fill="#ffffff"></rect></mask><linearGradient x1="50%" y1="0%" x2="50%" y2="100%" id="SvgjsLinearGradient1007"><stop stop-opacity="0.65" stop-color="rgba(239, 240, 242, 1)" offset="0"></stop><stop stop-opacity="0" stop-color="#ffffff" offset="0.8"></stop></linearGradient></defs></svg>