<svg id="svg" version="1.1" xmlns="http://www.w3.org/2000/svg" xmlns:xlink="http://www.w3.org/1999/xlink" width="400" height="100" viewBox="0, 0, 400,100"><g id="svgg"><path id="path0" d="M276.594 38.597 C 264.790 40.432,258.469 53.563,263.569 65.656 C 268.787 78.030,287.859 79.596,295.347 68.267 C 297.114 65.594,298.370 61.652,297.734 60.779 L 297.417 60.344 291.250 60.343 L 285.083 60.342 284.793 60.973 C 283.294 64.230,278.868 65.075,276.467 62.562 C 274.096 60.081,274.096 54.086,276.467 51.605 C 278.868 49.092,283.294 49.937,284.793 53.194 L 285.083 53.825 291.250 53.824 L 297.417 53.823 297.734 53.388 C 298.148 52.820,297.916 51.495,296.978 49.066 C 293.979 41.302,285.896 37.151,276.594 38.597 M302.196 39.052 L 301.833 39.438 301.833 57.190 L 301.833 74.942 302.219 75.304 C 302.599 75.661,302.685 75.667,308.190 75.667 L 313.775 75.667 314.135 75.284 C 314.484 74.912,314.496 74.758,314.539 70.095 L 314.583 65.289 317.276 70.436 L 319.969 75.583 326.369 75.627 L 332.770 75.671 333.052 75.078 C 333.391 74.367,333.825 75.273,329.516 67.691 C 325.613 60.825,325.997 61.758,326.911 61.353 C 334.588 57.957,335.657 46.339,328.747 41.408 C 325.269 38.927,323.633 38.667,311.492 38.667 L 302.558 38.667 302.196 39.052 M337.029 39.052 L 336.667 39.438 336.667 57.190 L 336.667 74.942 337.052 75.304 C 337.433 75.661,337.518 75.667,343.023 75.667 L 348.609 75.667 348.971 75.281 C 349.329 74.900,349.334 74.821,349.350 68.656 L 349.367 62.417 349.666 63.333 C 349.831 63.837,350.754 66.800,351.717 69.917 L 353.467 75.583 358.790 75.627 L 364.114 75.671 366.099 69.211 L 368.083 62.750 368.127 68.825 C 368.170 74.792,368.177 74.906,368.531 75.283 L 368.891 75.667 374.500 75.667 L 380.109 75.667 380.471 75.281 L 380.833 74.895 380.833 57.143 L 380.833 39.391 380.448 39.029 C 380.064 38.669,380.023 38.667,372.989 38.669 L 365.917 38.672 362.425 48.497 C 360.504 53.901,358.912 58.301,358.886 58.275 C 358.860 58.249,357.821 55.458,356.576 52.072 C 355.332 48.687,353.710 44.285,352.972 42.292 L 351.631 38.667 344.511 38.667 L 337.391 38.667 337.029 39.052 M319.388 49.727 C 321.044 50.419,320.996 53.194,319.318 53.782 C 318.999 53.894,317.817 53.985,316.625 53.991 L 314.500 54.000 314.500 51.750 L 314.500 49.500 316.672 49.500 C 318.129 49.500,319.023 49.575,319.388 49.727 " stroke="none" fill="#64c48c" fill-rule="evenodd"></path><path id="path1" d="M46.122 16.100 C 46.088 16.135,45.836 16.187,45.564 16.217 C 45.291 16.247,44.966 16.334,44.842 16.411 C 44.680 16.512,44.654 16.489,44.750 16.333 C 44.832 16.200,44.819 16.156,44.716 16.219 C 44.375 16.430,43.579 16.719,43.433 16.685 C 43.351 16.666,43.164 16.704,43.017 16.769 C 42.870 16.834,42.707 16.894,42.655 16.902 C 42.602 16.910,42.428 17.048,42.268 17.208 C 42.107 17.369,41.846 17.500,41.686 17.500 C 41.527 17.500,41.232 17.653,41.031 17.840 C 40.831 18.027,40.666 18.120,40.664 18.048 C 40.663 17.976,40.590 18.029,40.504 18.167 C 40.417 18.304,40.265 18.417,40.167 18.417 C 40.068 18.417,39.917 18.529,39.830 18.667 C 39.743 18.804,39.671 18.844,39.669 18.755 C 39.668 18.665,39.549 18.760,39.405 18.966 C 39.259 19.174,39.057 19.289,38.947 19.226 C 38.839 19.164,38.802 19.171,38.865 19.241 C 39.003 19.395,38.266 20.167,37.980 20.167 C 37.869 20.167,37.822 20.211,37.875 20.264 C 37.965 20.353,37.724 20.712,37.216 21.249 C 37.106 21.365,37.062 21.507,37.119 21.563 C 37.176 21.620,37.134 21.667,37.027 21.667 C 36.920 21.667,36.702 21.967,36.544 22.333 C 36.385 22.700,36.193 23.000,36.118 23.000 C 36.042 23.000,36.027 23.075,36.083 23.167 C 36.140 23.258,36.107 23.333,36.010 23.333 C 35.913 23.333,35.833 23.446,35.833 23.583 C 35.833 23.721,35.763 23.833,35.676 23.833 C 35.590 23.833,35.548 23.982,35.583 24.163 C 35.618 24.345,35.575 24.537,35.487 24.591 C 35.400 24.645,35.367 24.753,35.415 24.831 C 35.464 24.909,35.403 25.073,35.282 25.195 C 35.024 25.453,34.793 26.211,35.014 26.075 C 35.187 25.968,35.023 26.486,34.787 26.792 C 34.678 26.933,34.692 27.000,34.833 27.000 C 34.972 27.000,34.989 27.069,34.884 27.208 C 34.797 27.323,34.741 27.697,34.760 28.039 C 34.778 28.382,34.744 28.631,34.683 28.594 C 34.545 28.508,34.569 29.207,34.713 29.441 C 34.772 29.536,34.785 29.809,34.742 30.047 C 34.699 30.284,34.729 30.519,34.810 30.569 C 34.890 30.618,34.932 30.865,34.905 31.117 C 34.877 31.369,34.923 31.658,35.007 31.759 C 35.091 31.860,35.182 32.087,35.210 32.263 C 35.237 32.439,35.314 32.670,35.380 32.777 C 35.447 32.883,35.455 33.089,35.399 33.235 C 35.343 33.381,35.372 33.500,35.463 33.500 C 35.603 33.500,35.676 33.638,35.899 34.333 C 35.913 34.379,36.061 34.620,36.227 34.868 C 36.393 35.116,36.480 35.397,36.421 35.493 C 36.362 35.588,36.431 35.667,36.573 35.667 C 36.716 35.667,36.833 35.779,36.833 35.917 C 36.833 36.054,36.913 36.167,37.010 36.167 C 37.107 36.167,37.145 36.234,37.094 36.316 C 37.043 36.398,37.125 36.512,37.275 36.570 C 37.425 36.627,37.503 36.719,37.449 36.773 C 37.394 36.828,37.646 37.138,38.008 37.464 C 38.370 37.789,38.667 38.155,38.667 38.277 C 38.667 38.400,38.782 38.500,38.922 38.500 C 39.062 38.500,39.220 38.612,39.273 38.750 C 39.326 38.887,39.472 39.000,39.597 39.000 C 39.723 39.000,39.949 39.188,40.099 39.417 C 40.249 39.646,40.451 39.833,40.548 39.833 C 40.645 39.833,40.846 39.944,40.996 40.079 C 41.145 40.215,41.414 40.349,41.592 40.378 C 41.771 40.406,42.120 40.565,42.368 40.729 C 42.616 40.894,42.891 40.984,42.978 40.930 C 43.066 40.876,43.164 40.910,43.197 41.006 C 43.229 41.103,43.423 41.194,43.627 41.210 C 43.832 41.225,44.000 41.290,44.000 41.354 C 44.000 41.418,44.131 41.450,44.292 41.426 C 44.452 41.401,44.637 41.464,44.703 41.565 C 44.771 41.670,45.254 41.742,45.823 41.732 C 46.424 41.721,46.785 41.777,46.725 41.873 C 46.671 41.961,46.781 41.951,46.969 41.850 C 47.395 41.622,47.551 41.616,47.417 41.833 C 47.360 41.925,47.389 42.000,47.480 42.000 C 47.572 42.000,47.693 41.925,47.750 41.833 C 47.807 41.742,47.928 41.667,48.020 41.667 C 48.111 41.667,48.133 41.753,48.067 41.859 C 47.985 41.992,48.021 42.005,48.183 41.901 C 48.311 41.818,48.642 41.740,48.917 41.728 C 49.192 41.716,49.642 41.653,49.917 41.589 C 50.192 41.525,50.546 41.455,50.705 41.434 C 50.863 41.413,51.045 41.344,51.108 41.281 C 51.171 41.218,51.393 41.167,51.601 41.167 C 51.810 41.167,52.021 41.102,52.070 41.022 C 52.119 40.942,52.453 40.830,52.811 40.773 C 53.170 40.715,53.507 40.556,53.560 40.418 C 53.613 40.280,53.806 40.167,53.989 40.167 C 54.172 40.167,54.401 40.017,54.499 39.835 C 54.597 39.653,54.731 39.511,54.797 39.521 C 55.114 39.569,55.344 39.485,55.261 39.351 C 55.167 39.200,55.635 38.921,55.887 38.978 C 55.963 38.994,55.987 38.948,55.942 38.874 C 55.896 38.800,56.115 38.563,56.429 38.348 C 56.743 38.133,57.000 37.873,57.000 37.770 C 57.000 37.667,57.264 37.373,57.587 37.115 C 57.910 36.857,58.130 36.576,58.077 36.490 C 58.024 36.404,58.058 36.333,58.154 36.333 C 58.249 36.333,58.375 36.142,58.434 35.909 C 58.492 35.675,58.582 35.527,58.634 35.578 C 58.708 35.652,59.066 35.025,59.250 34.500 C 59.419 34.017,59.563 33.681,59.759 33.315 C 59.887 33.076,60.009 32.645,60.031 32.357 C 60.053 32.069,60.123 31.833,60.187 31.833 C 60.250 31.833,60.263 31.683,60.215 31.500 C 60.167 31.317,60.201 31.167,60.291 31.167 C 60.384 31.167,60.428 30.809,60.393 30.333 C 60.349 29.744,60.392 29.499,60.541 29.497 C 60.699 29.496,60.695 29.460,60.527 29.354 C 60.405 29.276,60.305 29.155,60.305 29.083 C 60.305 29.012,60.405 28.890,60.527 28.813 C 60.706 28.699,60.701 28.671,60.500 28.667 C 60.278 28.662,60.278 28.644,60.500 28.500 C 60.637 28.411,60.672 28.337,60.576 28.336 C 60.474 28.334,60.410 27.951,60.422 27.408 C 60.433 26.900,60.383 26.447,60.311 26.403 C 60.240 26.359,60.224 26.212,60.276 26.076 C 60.328 25.940,60.297 25.736,60.207 25.623 C 60.027 25.395,59.493 23.836,59.515 23.602 C 59.522 23.521,59.466 23.408,59.389 23.352 C 59.065 23.114,58.592 22.447,58.833 22.567 C 58.971 22.635,58.938 22.573,58.760 22.429 C 58.582 22.285,58.488 22.167,58.550 22.167 C 58.613 22.167,58.496 21.973,58.291 21.737 C 58.085 21.500,57.917 21.244,57.917 21.167 C 57.917 20.973,57.201 20.167,57.029 20.167 C 56.952 20.167,56.791 19.983,56.671 19.758 C 56.551 19.533,56.369 19.364,56.268 19.383 C 56.166 19.402,56.099 19.331,56.119 19.226 C 56.139 19.121,55.933 18.944,55.663 18.832 C 55.392 18.720,55.206 18.570,55.250 18.500 C 55.294 18.430,55.086 18.272,54.790 18.151 C 54.493 18.029,54.105 17.795,53.927 17.631 C 53.749 17.467,53.474 17.333,53.316 17.333 C 53.157 17.333,53.000 17.251,52.967 17.151 C 52.934 17.051,52.710 16.957,52.469 16.943 C 52.229 16.929,52.061 16.870,52.096 16.812 C 52.132 16.755,51.843 16.651,51.455 16.581 C 50.441 16.397,50.338 16.373,50.029 16.236 C 49.742 16.109,46.235 15.987,46.122 16.100 M142.770 36.119 C 142.722 36.167,142.438 36.227,142.139 36.252 C 141.840 36.278,141.567 36.382,141.533 36.484 C 141.499 36.585,141.403 36.626,141.319 36.575 C 141.235 36.523,141.167 36.555,141.167 36.646 C 141.167 36.736,141.011 36.860,140.821 36.921 C 140.631 36.981,140.517 37.072,140.568 37.123 C 140.619 37.174,140.531 37.336,140.372 37.483 C 139.517 38.274,139.189 40.215,139.722 41.333 C 140.066 42.055,140.722 42.833,140.988 42.833 C 141.097 42.833,141.145 42.901,141.093 42.984 C 140.818 43.429,143.404 43.781,144.274 43.417 C 144.582 43.289,144.833 43.220,144.833 43.265 C 144.833 43.360,145.147 43.105,145.839 42.446 C 146.111 42.186,146.333 41.863,146.333 41.727 C 146.333 41.591,146.408 41.527,146.500 41.583 C 146.592 41.640,146.676 41.551,146.688 41.385 C 146.700 41.219,146.737 40.915,146.771 40.708 C 146.922 39.795,146.916 39.543,146.725 38.887 C 146.378 37.693,145.439 36.520,144.819 36.506 C 144.674 36.503,144.504 36.448,144.441 36.385 C 144.378 36.323,144.197 36.250,144.038 36.225 C 143.880 36.200,143.549 36.146,143.303 36.106 C 143.058 36.065,142.818 36.071,142.770 36.119 M74.845 39.606 C 74.247 40.366,74.334 43.279,74.973 43.891 L 75.446 44.344 79.765 44.297 L 84.083 44.250 84.083 57.292 L 84.083 70.333 81.456 70.333 L 78.828 70.333 78.507 69.792 C 78.331 69.494,78.126 69.175,78.052 69.083 C 77.977 68.992,77.704 68.491,77.445 67.971 C 77.185 67.451,76.859 66.981,76.719 66.928 C 76.573 66.872,76.507 66.722,76.564 66.573 C 76.621 66.426,76.592 66.360,76.498 66.418 C 76.407 66.474,76.333 66.403,76.333 66.260 C 76.333 66.117,76.250 66.000,76.149 66.000 C 76.047 66.000,76.007 65.889,76.059 65.753 C 76.115 65.606,76.018 65.432,75.822 65.328 C 75.640 65.230,75.535 65.079,75.589 64.992 C 75.642 64.905,75.616 64.833,75.529 64.833 C 75.405 64.833,75.166 64.286,75.179 64.033 C 75.180 64.005,75.009 63.838,74.799 63.663 C 74.589 63.488,74.482 63.342,74.561 63.339 C 74.641 63.336,74.510 63.076,74.270 62.761 C 74.030 62.446,73.833 62.109,73.833 62.011 C 73.833 61.913,73.754 61.833,73.657 61.833 C 73.560 61.833,73.529 61.754,73.589 61.658 C 73.648 61.561,73.529 61.336,73.323 61.158 C 73.117 60.979,73.017 60.832,73.099 60.831 C 73.182 60.829,73.175 60.773,73.083 60.706 C 72.731 60.447,72.391 59.923,72.667 60.064 C 72.811 60.138,72.794 60.091,72.625 59.952 C 72.465 59.821,72.333 59.628,72.333 59.523 C 72.333 59.419,72.261 59.333,72.172 59.333 C 72.083 59.333,72.058 59.209,72.117 59.056 C 72.188 58.870,72.159 58.818,72.028 58.899 C 71.861 59.002,71.793 58.885,71.794 58.500 C 71.794 58.454,71.642 58.267,71.455 58.083 C 71.268 57.900,71.177 57.862,71.251 58.000 C 71.326 58.137,71.191 58.072,70.952 57.854 C 70.476 57.420,69.306 57.325,68.667 57.666 C 68.484 57.765,68.333 57.788,68.333 57.719 C 68.333 57.649,68.216 57.760,68.072 57.966 C 67.928 58.171,67.749 58.301,67.673 58.254 C 67.526 58.163,67.324 58.533,67.220 59.083 C 67.185 59.267,67.084 59.442,66.994 59.473 C 66.905 59.503,66.868 59.588,66.913 59.661 C 66.958 59.734,66.811 60.065,66.586 60.397 C 66.361 60.729,66.216 61.000,66.264 61.000 C 66.400 61.000,65.781 62.055,65.500 62.304 C 65.362 62.425,65.344 62.477,65.458 62.419 C 65.774 62.259,65.711 62.404,65.247 62.904 C 65.017 63.153,64.870 63.424,64.921 63.507 C 65.037 63.694,64.534 64.687,64.199 64.933 C 64.062 65.034,63.998 65.195,64.057 65.291 C 64.116 65.387,64.048 65.510,63.905 65.565 C 63.762 65.619,63.689 65.734,63.742 65.820 C 63.861 66.013,63.501 66.833,63.297 66.833 C 63.214 66.833,63.193 66.908,63.250 67.000 C 63.307 67.092,63.269 67.167,63.167 67.167 C 63.064 67.167,63.014 67.223,63.054 67.292 C 63.163 67.475,62.567 68.512,62.431 68.376 C 62.368 68.312,62.365 68.389,62.426 68.547 C 62.489 68.711,62.457 68.833,62.351 68.833 C 62.250 68.833,62.167 68.983,62.167 69.167 C 62.167 69.350,62.087 69.500,61.990 69.500 C 61.893 69.500,61.853 69.564,61.901 69.642 C 62.035 69.858,61.608 70.344,61.408 70.205 C 61.312 70.138,61.110 69.820,60.961 69.498 C 60.811 69.176,60.496 68.745,60.261 68.541 C 60.026 68.336,59.833 68.056,59.833 67.918 C 59.833 67.780,59.754 67.667,59.657 67.667 C 59.560 67.667,59.527 67.591,59.584 67.499 C 59.641 67.407,59.571 67.286,59.428 67.231 C 59.285 67.177,59.210 67.064,59.262 66.981 C 59.313 66.899,59.238 66.786,59.095 66.731 C 58.952 66.677,58.877 66.565,58.927 66.483 C 58.978 66.400,58.928 66.333,58.815 66.333 C 58.703 66.333,58.660 66.285,58.720 66.225 C 58.871 66.073,58.012 65.306,57.822 65.424 C 57.736 65.477,57.590 65.472,57.495 65.414 C 57.262 65.270,49.333 65.221,49.333 65.364 C 49.333 65.478,48.730 65.726,48.417 65.742 C 48.325 65.746,48.245 65.825,48.240 65.917 C 48.234 66.008,48.097 66.383,47.934 66.750 C 47.550 67.615,47.429 68.230,47.672 68.080 C 47.776 68.016,47.836 68.064,47.810 68.192 C 47.784 68.315,47.857 68.585,47.971 68.792 C 48.085 68.998,48.138 69.167,48.089 69.167 C 48.040 69.167,48.132 69.298,48.294 69.458 C 48.969 70.128,49.514 70.241,52.491 70.330 L 55.398 70.417 56.066 71.531 C 56.433 72.143,56.794 72.608,56.867 72.563 C 56.940 72.517,57.000 72.622,57.000 72.794 C 57.000 72.967,57.187 73.285,57.417 73.500 C 57.646 73.715,57.833 73.993,57.833 74.118 C 57.833 74.242,57.946 74.387,58.083 74.440 C 58.221 74.492,58.333 74.640,58.333 74.768 C 58.333 74.896,58.421 75.000,58.528 75.000 C 58.635 75.000,58.677 75.046,58.621 75.101 C 58.565 75.157,58.703 75.400,58.927 75.641 C 59.150 75.883,59.333 76.216,59.333 76.383 C 59.333 76.572,59.407 76.641,59.528 76.566 C 59.659 76.485,59.689 76.536,59.618 76.721 C 59.560 76.872,59.570 76.978,59.640 76.956 C 59.711 76.935,59.971 77.134,60.218 77.399 C 60.465 77.665,60.667 77.824,60.667 77.754 C 60.667 77.683,60.774 77.715,60.904 77.823 C 61.223 78.088,62.547 78.210,62.392 77.961 C 62.320 77.844,62.375 77.814,62.544 77.878 C 62.690 77.934,62.898 77.873,63.007 77.742 C 63.115 77.611,63.271 77.545,63.352 77.595 C 63.433 77.645,63.500 77.619,63.500 77.536 C 63.500 77.453,63.687 77.167,63.916 76.901 C 64.146 76.635,64.333 76.360,64.333 76.292 C 64.334 75.982,64.372 75.908,64.599 75.781 C 64.732 75.707,64.800 75.581,64.751 75.501 C 64.702 75.422,64.737 75.310,64.830 75.252 C 64.922 75.195,65.081 74.993,65.182 74.804 C 65.313 74.560,65.314 74.492,65.185 74.572 C 65.072 74.642,65.041 74.587,65.103 74.426 C 65.157 74.285,65.281 74.218,65.379 74.278 C 65.490 74.347,65.517 74.285,65.450 74.111 C 65.392 73.958,65.421 73.833,65.515 73.833 C 65.609 73.833,65.640 73.758,65.583 73.667 C 65.527 73.575,65.564 73.500,65.667 73.500 C 65.769 73.500,65.807 73.425,65.750 73.333 C 65.693 73.242,65.721 73.167,65.812 73.167 C 65.978 73.167,66.262 72.526,66.200 72.292 C 66.182 72.223,66.242 72.167,66.333 72.167 C 66.425 72.167,66.500 72.079,66.500 71.971 C 66.500 71.864,66.631 71.626,66.792 71.443 C 66.952 71.259,66.990 71.164,66.875 71.231 C 66.547 71.423,66.631 71.214,67.042 70.815 C 67.248 70.615,67.304 70.505,67.167 70.571 C 67.014 70.645,67.030 70.598,67.208 70.452 C 67.369 70.321,67.500 70.079,67.500 69.914 C 67.500 69.749,67.701 69.351,67.947 69.029 C 68.193 68.707,68.306 68.497,68.199 68.563 C 68.071 68.643,68.038 68.596,68.103 68.426 C 68.157 68.285,68.280 68.217,68.377 68.277 C 68.478 68.339,68.502 68.305,68.434 68.195 C 68.369 68.090,68.465 67.845,68.646 67.651 C 68.827 67.456,68.935 67.192,68.887 67.065 C 68.838 66.938,68.876 66.833,68.971 66.833 C 69.148 66.833,69.429 66.195,69.362 65.946 C 69.342 65.870,69.402 65.856,69.496 65.914 C 69.591 65.973,69.667 65.870,69.667 65.682 C 69.667 65.446,69.744 65.374,69.924 65.442 C 70.065 65.497,70.143 65.579,70.096 65.626 C 70.049 65.673,70.157 65.898,70.337 66.125 C 70.516 66.353,70.614 66.617,70.555 66.712 C 70.493 66.812,70.529 66.835,70.641 66.766 C 70.753 66.696,70.833 66.750,70.833 66.895 C 70.833 67.031,70.949 67.258,71.089 67.399 C 71.230 67.540,71.340 67.696,71.333 67.747 C 71.303 67.972,71.907 69.039,72.109 69.116 C 72.231 69.163,72.294 69.263,72.248 69.337 C 72.201 69.412,72.293 69.602,72.450 69.760 C 72.608 69.918,72.753 70.155,72.773 70.287 C 72.792 70.420,72.945 70.632,73.112 70.759 C 73.280 70.886,73.347 70.992,73.263 70.995 C 73.178 70.998,73.279 71.182,73.488 71.404 C 73.697 71.627,73.818 71.889,73.758 71.988 C 73.696 72.088,73.769 72.167,73.925 72.167 C 74.096 72.167,74.168 72.257,74.112 72.403 C 74.062 72.533,74.129 72.680,74.261 72.731 C 74.392 72.782,74.500 72.980,74.500 73.171 C 74.500 73.363,74.567 73.478,74.649 73.427 C 74.731 73.377,74.843 73.451,74.897 73.593 C 74.963 73.763,74.926 73.814,74.790 73.744 C 74.676 73.686,74.771 73.801,75.000 74.000 C 75.229 74.199,75.304 74.309,75.167 74.245 C 75.029 74.180,75.135 74.324,75.401 74.564 C 75.667 74.804,75.953 75.000,76.036 75.000 C 76.119 75.000,76.142 75.071,76.089 75.158 C 76.035 75.245,76.143 75.287,76.329 75.251 C 76.515 75.215,76.667 75.244,76.667 75.315 C 76.667 75.464,83.380 75.621,83.833 75.482 C 84.140 75.389,84.833 75.425,84.833 75.534 C 84.833 75.969,89.107 75.664,89.554 75.197 L 90.003 74.728 89.960 59.489 L 89.917 44.250 94.235 44.297 L 98.554 44.344 99.027 43.891 C 99.666 43.279,99.753 40.366,99.155 39.606 L 98.809 39.167 87.000 39.167 L 75.191 39.167 74.845 39.606 M116.259 46.296 C 116.234 46.322,115.921 46.377,115.565 46.420 C 115.208 46.462,114.617 46.549,114.250 46.614 C 113.883 46.678,113.533 46.735,113.472 46.740 C 113.411 46.746,113.310 46.801,113.248 46.864 C 113.185 46.926,113.028 46.936,112.899 46.887 C 112.770 46.837,112.477 46.919,112.249 47.069 C 112.020 47.219,111.833 47.293,111.833 47.233 C 111.833 47.174,111.713 47.225,111.567 47.347 C 111.420 47.469,111.214 47.585,111.108 47.605 C 110.750 47.672,109.679 48.290,109.768 48.379 C 109.816 48.427,109.587 48.555,109.260 48.663 C 108.932 48.772,108.706 48.929,108.758 49.013 C 108.810 49.098,108.747 49.167,108.617 49.167 C 108.488 49.167,108.202 49.381,107.983 49.642 C 107.763 49.903,107.412 50.207,107.204 50.317 C 106.995 50.427,106.866 50.585,106.917 50.668 C 106.969 50.751,106.821 50.943,106.589 51.095 C 106.357 51.247,106.167 51.465,106.167 51.578 C 106.167 51.692,105.978 51.988,105.747 52.237 C 105.517 52.486,105.371 52.760,105.425 52.846 C 105.478 52.932,105.404 53.047,105.262 53.102 C 105.119 53.157,105.043 53.269,105.094 53.351 C 105.145 53.433,105.107 53.500,105.010 53.500 C 104.913 53.500,104.833 53.650,104.833 53.833 C 104.833 54.017,104.752 54.167,104.653 54.167 C 104.553 54.167,104.503 54.260,104.541 54.374 C 104.579 54.487,104.514 54.677,104.395 54.795 C 104.277 54.913,104.223 55.120,104.275 55.255 C 104.327 55.390,104.282 55.500,104.175 55.500 C 104.068 55.500,104.023 55.570,104.076 55.655 C 104.129 55.740,104.099 55.855,104.010 55.910 C 103.921 55.966,103.891 56.122,103.943 56.257 C 103.995 56.393,103.951 56.608,103.846 56.735 C 103.741 56.861,103.670 57.029,103.689 57.107 C 103.708 57.186,103.660 57.550,103.583 57.917 C 103.506 58.283,103.429 58.921,103.410 59.333 C 103.392 59.746,103.360 60.121,103.337 60.167 C 103.253 60.342,103.399 63.365,103.506 63.667 C 103.523 63.712,103.538 63.956,103.540 64.208 C 103.543 64.460,103.600 64.667,103.666 64.667 C 103.733 64.667,103.775 64.835,103.759 65.042 C 103.744 65.248,103.791 65.499,103.865 65.600 C 103.939 65.701,104.016 65.982,104.036 66.225 C 104.056 66.468,104.116 66.667,104.170 66.667 C 104.297 66.667,104.743 67.866,104.700 68.093 C 104.682 68.191,104.798 68.416,104.959 68.593 C 105.119 68.771,105.400 69.229,105.582 69.610 C 105.765 69.991,105.971 70.268,106.040 70.225 C 106.110 70.182,106.167 70.306,106.167 70.500 C 106.167 70.694,106.236 70.810,106.321 70.757 C 106.406 70.705,106.524 70.813,106.583 70.998 C 106.641 71.182,106.772 71.333,106.872 71.333 C 106.973 71.333,107.013 71.375,106.962 71.427 C 106.840 71.549,107.663 72.429,107.850 72.376 C 107.929 72.354,108.116 72.522,108.266 72.751 C 108.416 72.980,108.600 73.167,108.676 73.167 C 108.751 73.167,109.060 73.392,109.361 73.668 C 109.663 73.943,110.058 74.215,110.239 74.273 C 110.420 74.330,110.667 74.477,110.789 74.598 C 110.910 74.720,111.120 74.777,111.255 74.725 C 111.390 74.673,111.500 74.718,111.500 74.825 C 111.500 74.932,111.575 74.973,111.667 74.917 C 111.758 74.860,111.833 74.893,111.833 74.990 C 111.833 75.087,112.008 75.167,112.222 75.167 C 112.436 75.167,112.667 75.223,112.736 75.292 C 112.805 75.360,112.911 75.423,112.972 75.431 C 113.033 75.439,113.196 75.494,113.333 75.553 C 113.962 75.823,118.452 76.032,118.762 75.805 C 118.860 75.734,119.329 75.661,119.804 75.644 C 120.278 75.628,120.667 75.538,120.667 75.446 C 120.667 75.353,120.714 75.325,120.771 75.382 C 120.829 75.440,121.129 75.381,121.438 75.252 C 121.747 75.123,122.001 75.069,122.003 75.134 C 122.004 75.198,122.060 75.173,122.128 75.080 C 122.195 74.986,122.438 74.817,122.667 74.704 C 123.409 74.336,124.242 73.809,124.594 73.484 C 124.783 73.310,124.987 73.167,125.047 73.167 C 125.107 73.167,125.439 72.885,125.786 72.542 L 126.417 71.917 126.465 73.413 C 126.537 75.616,126.603 75.667,129.415 75.667 C 131.596 75.667,131.606 75.665,132.052 75.199 L 132.500 74.732 132.500 61.123 L 132.500 47.515 132.076 47.091 C 131.662 46.677,131.594 46.667,129.352 46.667 C 126.498 46.667,126.534 46.641,126.465 48.755 L 126.417 50.250 125.761 49.583 C 125.401 49.217,125.045 48.935,124.970 48.958 C 124.895 48.981,124.833 48.925,124.833 48.833 C 124.833 48.742,124.729 48.667,124.601 48.667 C 124.473 48.667,124.324 48.549,124.269 48.406 C 124.214 48.263,124.100 48.188,124.015 48.240 C 123.931 48.293,123.837 48.274,123.806 48.199 C 123.775 48.124,123.225 47.809,122.583 47.499 C 120.891 46.680,120.800 46.645,120.928 46.852 C 121.003 46.972,120.917 46.968,120.676 46.838 C 120.044 46.500,116.491 46.064,116.259 46.296 M166.967 46.255 C 166.887 46.336,165.295 46.536,164.875 46.519 C 164.669 46.511,164.500 46.582,164.500 46.678 C 164.500 46.774,164.422 46.805,164.326 46.745 C 164.230 46.686,164.031 46.738,163.884 46.861 C 163.736 46.983,163.587 47.059,163.552 47.030 C 163.446 46.940,161.940 47.713,161.594 48.034 C 161.416 48.199,161.180 48.333,161.069 48.333 C 160.959 48.333,160.692 48.520,160.476 48.747 C 159.925 49.327,159.833 49.276,159.833 48.384 C 159.833 47.762,159.742 47.506,159.385 47.134 L 158.938 46.667 156.661 46.667 C 153.458 46.667,153.833 44.750,153.833 61.109 L 153.833 74.942 154.219 75.304 C 154.889 75.934,158.761 75.851,159.391 75.193 L 159.845 74.720 159.826 66.123 C 159.814 60.451,159.867 57.415,159.981 57.201 C 160.077 57.023,160.111 56.833,160.057 56.779 C 160.003 56.725,160.018 56.547,160.090 56.382 C 160.162 56.218,160.229 56.046,160.238 56.000 C 160.247 55.954,160.315 55.823,160.387 55.708 C 160.460 55.594,160.466 55.500,160.401 55.500 C 160.335 55.500,160.406 55.363,160.558 55.195 C 160.710 55.027,160.784 54.839,160.723 54.778 C 160.661 54.717,160.699 54.667,160.806 54.667 C 160.912 54.667,161.000 54.550,161.000 54.407 C 161.000 54.264,161.067 54.188,161.149 54.239 C 161.231 54.290,161.341 54.158,161.394 53.946 C 161.448 53.734,161.681 53.460,161.912 53.336 C 162.144 53.212,162.333 53.048,162.333 52.972 C 162.333 52.896,162.458 52.833,162.611 52.833 C 162.764 52.833,162.842 52.786,162.784 52.729 C 162.669 52.614,163.721 52.034,164.250 51.921 C 164.433 51.882,164.771 51.803,165.000 51.746 C 165.560 51.606,168.167 51.542,168.167 51.668 C 168.167 51.723,168.335 51.769,168.542 51.770 C 169.086 51.772,169.833 52.012,169.833 52.185 C 169.833 52.266,170.023 52.333,170.255 52.333 C 170.487 52.333,170.717 52.438,170.767 52.567 C 170.816 52.695,171.007 52.840,171.191 52.888 C 171.374 52.936,171.565 53.131,171.615 53.321 C 171.665 53.511,171.809 53.667,171.936 53.667 C 172.063 53.667,172.167 53.771,172.167 53.899 C 172.167 54.027,172.279 54.174,172.417 54.227 C 172.554 54.280,172.667 54.481,172.667 54.673 C 172.667 54.866,172.776 55.133,172.910 55.267 C 173.043 55.400,173.113 55.612,173.065 55.738 C 173.017 55.864,173.059 56.017,173.158 56.078 C 173.257 56.139,173.296 56.260,173.243 56.345 C 173.190 56.430,173.210 56.500,173.288 56.500 C 173.492 56.500,173.491 56.452,173.484 65.934 L 173.477 74.618 174.001 75.142 L 174.526 75.667 176.650 75.667 C 179.807 75.667,179.480 76.750,179.546 66.077 C 179.601 57.219,179.679 56.034,180.227 55.644 C 180.309 55.585,180.325 55.454,180.262 55.352 C 180.199 55.250,180.208 55.167,180.283 55.167 C 180.358 55.167,180.512 54.955,180.627 54.696 C 180.889 54.104,181.861 53.000,182.120 53.000 C 182.227 53.000,182.431 52.833,182.574 52.630 C 182.717 52.426,182.833 52.322,182.833 52.399 C 182.833 52.476,183.003 52.427,183.211 52.291 C 183.620 52.023,184.622 51.747,184.958 51.809 C 185.073 51.831,185.167 51.783,185.167 51.704 C 185.167 51.419,188.527 51.649,189.125 51.974 C 189.331 52.087,189.500 52.136,189.500 52.085 C 189.500 52.034,189.709 52.100,189.964 52.232 C 190.535 52.527,192.000 53.911,192.000 54.155 C 192.000 54.253,192.075 54.333,192.167 54.333 C 192.258 54.333,192.333 54.478,192.333 54.655 C 192.333 54.832,192.451 55.094,192.595 55.238 C 192.739 55.382,192.812 55.500,192.756 55.500 C 192.700 55.500,192.749 55.669,192.863 55.875 C 192.977 56.081,193.051 56.317,193.027 56.400 C 193.003 56.482,193.036 56.670,193.100 56.817 C 193.164 56.963,193.244 57.196,193.277 57.333 C 193.310 57.471,193.334 61.439,193.330 66.152 L 193.322 74.720 193.776 75.193 C 194.486 75.935,198.186 75.929,198.898 75.186 L 199.359 74.705 199.290 65.644 C 199.252 60.661,199.175 56.409,199.118 56.195 C 199.061 55.981,198.968 55.662,198.912 55.486 C 198.856 55.310,198.783 54.959,198.750 54.708 C 198.717 54.456,198.675 54.231,198.657 54.208 C 198.640 54.185,198.606 54.092,198.583 54.000 C 198.560 53.908,198.527 53.815,198.508 53.792 C 198.490 53.769,198.443 53.575,198.403 53.362 C 198.364 53.149,198.219 52.862,198.081 52.724 C 197.943 52.586,197.873 52.404,197.925 52.320 C 197.977 52.236,197.940 52.167,197.843 52.167 C 197.746 52.167,197.667 52.054,197.667 51.917 C 197.667 51.779,197.587 51.667,197.490 51.667 C 197.393 51.667,197.360 51.592,197.417 51.500 C 197.473 51.408,197.436 51.333,197.333 51.333 C 197.231 51.333,197.193 51.258,197.250 51.167 C 197.307 51.075,197.269 51.000,197.167 51.000 C 197.064 51.000,197.027 50.925,197.083 50.833 C 197.140 50.742,197.120 50.667,197.038 50.667 C 196.956 50.667,196.789 50.479,196.667 50.250 C 196.544 50.021,196.416 49.862,196.381 49.897 C 196.282 49.995,195.333 48.995,195.333 48.793 C 195.333 48.693,195.289 48.655,195.236 48.709 C 195.182 48.762,194.951 48.644,194.722 48.445 C 194.494 48.246,194.240 48.083,194.159 48.083 C 194.077 48.083,193.840 47.937,193.630 47.758 C 193.421 47.578,193.231 47.448,193.208 47.468 C 193.184 47.488,192.884 47.379,192.541 47.227 C 192.198 47.075,191.729 46.922,191.500 46.887 C 191.271 46.852,190.896 46.756,190.667 46.674 C 189.710 46.328,186.225 46.105,186.056 46.378 C 186.013 46.448,185.918 46.469,185.846 46.424 C 185.668 46.315,183.722 46.797,183.000 47.131 C 182.679 47.279,182.312 47.417,182.183 47.439 C 182.055 47.460,181.895 47.567,181.827 47.677 C 181.758 47.789,181.612 47.819,181.493 47.746 C 181.355 47.661,181.323 47.682,181.401 47.808 C 181.469 47.918,181.420 48.000,181.285 48.000 C 181.156 48.000,180.895 48.131,180.705 48.292 C 180.390 48.557,180.037 48.841,179.083 49.595 C 178.900 49.739,178.862 49.809,179.000 49.750 C 179.137 49.690,179.063 49.805,178.833 50.006 C 178.604 50.207,178.416 50.419,178.415 50.477 C 178.406 51.314,177.551 51.414,177.089 50.631 C 176.796 50.136,175.000 48.281,175.000 48.474 C 175.000 48.523,174.882 48.418,174.738 48.240 C 174.593 48.062,174.530 48.029,174.597 48.167 C 174.664 48.304,174.482 48.196,174.192 47.927 C 173.903 47.658,173.667 47.498,173.667 47.573 C 173.667 47.647,173.554 47.614,173.417 47.500 C 173.279 47.386,173.167 47.341,173.167 47.400 C 173.167 47.459,172.992 47.393,172.778 47.253 C 172.565 47.113,172.340 47.049,172.278 47.111 C 172.217 47.172,172.167 47.153,172.167 47.069 C 172.166 46.985,171.969 46.905,171.728 46.891 C 171.487 46.877,171.243 46.795,171.187 46.708 C 171.130 46.621,170.915 46.564,170.708 46.581 C 170.502 46.597,170.333 46.565,170.333 46.508 C 170.333 46.451,170.090 46.393,169.792 46.379 C 169.494 46.365,168.748 46.320,168.134 46.279 C 167.521 46.237,166.995 46.227,166.967 46.255 M218.250 46.334 C 218.211 46.396,217.821 46.463,217.382 46.481 C 216.943 46.500,216.377 46.526,216.125 46.538 C 215.873 46.551,215.667 46.615,215.667 46.682 C 215.667 46.749,215.535 46.784,215.375 46.761 C 215.215 46.737,214.971 46.771,214.833 46.836 C 214.696 46.902,214.321 47.048,214.000 47.162 C 212.382 47.736,212.054 47.885,211.708 48.208 C 211.502 48.401,211.333 48.505,211.333 48.439 C 211.333 48.315,211.061 48.517,210.467 49.083 C 210.275 49.267,210.180 49.304,210.257 49.167 C 210.333 49.029,210.063 49.211,209.656 49.571 C 209.250 49.931,208.848 50.344,208.765 50.488 C 208.681 50.632,208.512 50.810,208.390 50.883 C 208.267 50.957,208.167 51.107,208.167 51.218 C 208.167 51.329,208.017 51.513,207.833 51.628 C 207.650 51.742,207.500 51.948,207.500 52.085 C 207.500 52.221,207.413 52.333,207.306 52.333 C 207.199 52.333,207.159 52.381,207.217 52.440 C 207.276 52.498,207.189 52.742,207.025 52.981 C 206.519 53.718,205.668 55.846,205.666 56.381 C 205.665 56.492,205.559 56.786,205.429 57.034 C 205.300 57.282,205.215 57.676,205.241 57.909 C 205.267 58.142,205.242 58.333,205.185 58.333 C 205.129 58.334,205.070 58.615,205.053 58.958 C 205.036 59.302,204.989 60.108,204.948 60.750 C 204.908 61.392,204.918 61.992,204.973 62.083 C 205.027 62.175,205.084 62.512,205.099 62.833 C 205.131 63.487,205.257 64.259,205.492 65.250 C 205.667 65.989,205.659 65.951,205.686 66.125 C 205.804 66.891,206.032 67.500,206.203 67.500 C 206.294 67.500,206.324 67.616,206.270 67.759 C 206.215 67.901,206.234 67.978,206.312 67.930 C 206.390 67.882,206.595 68.157,206.768 68.542 C 206.942 68.927,207.254 69.494,207.463 69.802 C 207.672 70.110,207.860 70.440,207.880 70.535 C 207.900 70.630,208.160 70.950,208.458 71.246 C 208.756 71.542,209.000 71.870,209.000 71.975 C 209.000 72.080,209.108 72.167,209.241 72.167 C 209.373 72.167,209.579 72.298,209.699 72.458 C 209.989 72.848,211.096 73.667,211.332 73.667 C 211.435 73.667,211.473 73.742,211.417 73.833 C 211.360 73.925,211.468 74.000,211.657 74.000 C 211.846 74.000,212.000 74.079,212.000 74.177 C 212.000 74.274,212.069 74.310,212.153 74.258 C 212.238 74.206,212.425 74.282,212.570 74.427 C 212.715 74.572,212.833 74.633,212.833 74.562 C 212.833 74.491,212.923 74.523,213.033 74.633 C 213.143 74.743,213.373 74.833,213.543 74.833 C 213.714 74.833,213.807 74.908,213.750 75.000 C 213.693 75.092,213.745 75.172,213.865 75.178 C 214.574 75.214,215.248 75.360,215.437 75.517 C 215.557 75.617,215.752 75.664,215.869 75.622 C 215.987 75.579,216.227 75.619,216.402 75.709 C 216.789 75.909,221.104 75.994,221.617 75.812 C 221.818 75.740,222.283 75.645,222.650 75.601 C 223.017 75.557,223.452 75.448,223.617 75.360 C 223.782 75.272,223.954 75.200,224.000 75.201 C 224.314 75.205,225.500 74.794,225.500 74.680 C 225.500 74.526,226.509 74.064,226.708 74.127 C 226.777 74.149,226.833 74.108,226.833 74.036 C 226.833 73.964,227.077 73.764,227.375 73.591 C 227.673 73.418,227.977 73.176,228.050 73.055 C 228.123 72.933,228.259 72.833,228.352 72.833 C 228.444 72.833,228.797 72.523,229.135 72.144 C 229.473 71.765,229.994 71.213,230.292 70.916 C 230.590 70.620,230.833 70.254,230.833 70.104 C 230.833 69.953,230.983 69.702,231.167 69.545 C 231.350 69.388,231.500 69.165,231.500 69.051 C 231.500 68.867,231.943 67.783,232.354 66.961 C 232.452 66.768,232.402 66.513,232.202 66.185 L 231.906 65.697 229.117 65.675 C 227.583 65.663,226.342 65.712,226.358 65.785 C 226.374 65.857,226.288 66.142,226.167 66.417 C 226.045 66.692,225.958 66.973,225.973 67.042 C 225.988 67.110,225.925 67.167,225.833 67.167 C 225.742 67.167,225.685 67.234,225.708 67.317 C 225.829 67.752,223.433 69.940,222.670 70.091 C 222.531 70.119,222.398 70.156,222.375 70.175 C 222.352 70.193,222.277 70.224,222.208 70.243 C 222.140 70.262,221.891 70.332,221.657 70.399 C 221.422 70.465,221.085 70.547,220.907 70.581 C 220.729 70.614,220.546 70.655,220.500 70.672 C 220.419 70.702,217.628 70.666,217.208 70.629 C 217.094 70.619,217.000 70.556,217.000 70.488 C 217.000 70.420,216.850 70.404,216.667 70.452 C 216.483 70.500,216.333 70.464,216.333 70.372 C 216.333 70.188,215.713 69.947,215.358 69.993 C 215.234 70.009,215.182 69.943,215.242 69.846 C 215.306 69.742,215.252 69.708,215.110 69.763 C 214.964 69.819,214.531 69.523,214.011 69.011 C 213.539 68.547,213.100 68.167,213.034 68.167 C 212.892 68.167,212.000 66.723,212.000 66.493 C 212.000 66.405,211.933 66.333,211.851 66.333 C 211.688 66.333,211.426 65.539,211.480 65.208 C 211.499 65.094,211.441 65.000,211.350 65.000 C 211.260 65.000,211.215 64.850,211.250 64.667 C 211.285 64.483,211.244 64.333,211.157 64.333 C 211.071 64.333,211.000 64.127,211.000 63.875 L 211.000 63.417 221.759 63.461 C 233.879 63.510,232.901 63.631,232.945 62.083 C 233.034 58.882,232.995 57.500,232.814 57.500 C 232.744 57.500,232.690 57.369,232.693 57.208 C 232.696 57.048,232.645 56.729,232.580 56.500 C 232.516 56.271,232.425 55.821,232.379 55.500 C 232.333 55.179,232.184 54.790,232.048 54.636 C 231.912 54.481,231.857 54.263,231.926 54.151 C 232.012 54.013,231.982 53.992,231.831 54.085 C 231.670 54.184,231.639 54.145,231.716 53.944 C 231.775 53.791,231.746 53.667,231.652 53.667 C 231.557 53.667,231.527 53.592,231.583 53.500 C 231.640 53.408,231.607 53.333,231.510 53.333 C 231.413 53.333,231.333 53.235,231.333 53.115 C 231.333 52.995,231.188 52.740,231.010 52.549 C 230.832 52.358,230.730 52.158,230.784 52.105 C 230.837 52.052,230.758 51.961,230.607 51.903 C 230.457 51.845,230.333 51.693,230.333 51.566 C 230.333 51.438,230.254 51.333,230.157 51.333 C 230.060 51.333,230.027 51.258,230.083 51.167 C 230.140 51.075,230.067 51.000,229.921 51.000 C 229.775 51.000,229.606 50.869,229.545 50.708 C 229.483 50.548,229.253 50.267,229.032 50.083 C 228.812 49.900,228.490 49.619,228.316 49.458 C 228.142 49.298,227.959 49.167,227.910 49.167 C 227.860 49.167,227.658 49.017,227.462 48.833 C 227.265 48.650,226.899 48.409,226.647 48.298 C 226.396 48.187,226.227 48.038,226.271 47.967 C 226.315 47.895,226.234 47.882,226.092 47.936 C 225.949 47.991,225.833 47.948,225.833 47.841 C 225.833 47.734,225.758 47.693,225.667 47.750 C 225.575 47.807,225.500 47.769,225.500 47.667 C 225.500 47.564,225.425 47.527,225.333 47.583 C 225.242 47.640,225.167 47.607,225.167 47.510 C 225.167 47.413,224.984 47.333,224.760 47.333 C 224.536 47.333,224.306 47.257,224.248 47.164 C 224.191 47.071,224.074 47.038,223.988 47.090 C 223.903 47.143,223.833 47.094,223.833 46.982 C 223.833 46.870,223.788 46.823,223.733 46.878 C 223.678 46.934,223.443 46.907,223.211 46.819 C 222.980 46.731,222.444 46.624,222.020 46.581 C 221.597 46.538,220.987 46.463,220.667 46.414 C 219.666 46.260,218.323 46.216,218.250 46.334 M140.442 46.971 C 140.190 47.250,140.167 48.471,140.167 61.109 L 140.167 74.942 140.552 75.304 C 141.219 75.930,145.094 75.851,145.719 75.199 L 146.167 74.732 146.167 61.167 L 146.167 47.602 145.719 47.134 L 145.271 46.667 142.995 46.667 C 141.001 46.667,140.684 46.705,140.442 46.971 M236.306 47.042 C 236.004 47.592,235.964 48.041,236.205 48.190 C 236.321 48.262,236.417 48.391,236.417 48.475 C 236.417 48.560,236.679 48.994,236.999 49.440 C 237.320 49.885,237.564 50.306,237.541 50.375 C 237.518 50.444,237.579 50.500,237.677 50.500 C 237.774 50.500,237.806 50.576,237.749 50.668 C 237.692 50.760,237.763 50.881,237.906 50.936 C 238.049 50.991,238.167 51.170,238.167 51.333 C 238.167 51.497,238.284 51.676,238.427 51.731 C 238.571 51.786,238.641 51.907,238.584 51.999 C 238.527 52.091,238.560 52.167,238.657 52.167 C 238.754 52.167,238.833 52.271,238.833 52.399 C 238.833 52.527,238.946 52.674,239.083 52.727 C 239.221 52.780,239.333 52.938,239.333 53.078 C 239.333 53.218,239.396 53.333,239.472 53.333 C 239.548 53.333,239.896 53.896,240.245 54.583 C 240.593 55.271,240.927 55.833,240.985 55.833 C 241.043 55.833,241.275 56.171,241.500 56.583 C 241.725 56.996,241.962 57.333,242.026 57.333 C 242.091 57.333,242.312 57.671,242.518 58.083 C 242.724 58.496,242.954 58.833,243.030 58.833 C 243.105 58.833,243.167 58.946,243.167 59.083 C 243.167 59.221,243.235 59.333,243.320 59.333 C 243.404 59.333,243.601 59.669,243.758 60.080 C 243.914 60.491,244.100 60.791,244.169 60.749 C 244.239 60.706,244.339 60.836,244.391 61.038 C 244.444 61.240,244.424 61.445,244.346 61.494 C 244.268 61.543,243.997 61.958,243.742 62.417 C 243.488 62.875,243.142 63.371,242.974 63.520 C 242.805 63.668,242.667 63.895,242.667 64.024 C 242.667 64.153,242.517 64.388,242.333 64.545 C 242.150 64.702,242.000 64.935,242.000 65.064 C 242.000 65.192,241.883 65.343,241.739 65.398 C 241.596 65.453,241.522 65.567,241.574 65.652 C 241.627 65.737,241.557 65.920,241.418 66.058 C 241.280 66.196,241.167 66.394,241.167 66.498 C 241.167 66.602,241.092 66.640,241.000 66.583 C 240.850 66.491,240.761 66.709,240.814 67.042 C 240.824 67.110,240.758 67.167,240.667 67.167 C 240.575 67.167,240.500 67.279,240.500 67.417 C 240.500 67.554,240.427 67.667,240.338 67.667 C 240.196 67.667,239.712 68.436,239.631 68.790 C 239.615 68.860,239.459 69.067,239.284 69.250 C 238.993 69.555,238.238 70.751,237.699 71.760 C 237.580 71.983,237.421 72.167,237.347 72.167 C 237.273 72.167,237.037 72.537,236.822 72.989 C 236.608 73.441,236.372 73.774,236.299 73.729 C 236.226 73.684,236.167 73.795,236.167 73.976 C 236.167 74.157,236.073 74.337,235.959 74.375 C 235.814 74.423,235.877 74.628,236.168 75.054 L 236.583 75.664 239.000 75.659 L 241.417 75.655 241.875 75.050 C 242.127 74.718,242.333 74.346,242.333 74.223 C 242.333 74.100,242.399 74.000,242.480 74.000 C 242.560 74.000,242.724 73.765,242.843 73.478 C 242.961 73.191,243.234 72.747,243.448 72.493 C 243.663 72.238,243.950 71.761,244.088 71.432 C 244.225 71.103,244.412 70.833,244.502 70.833 C 244.593 70.833,244.667 70.683,244.667 70.500 C 244.667 70.317,244.740 70.167,244.829 70.167 C 244.962 70.167,245.517 69.313,245.588 69.000 C 245.657 68.695,246.078 68.000,246.193 68.000 C 246.270 68.000,246.333 67.887,246.333 67.750 C 246.333 67.612,246.408 67.500,246.500 67.500 C 246.592 67.500,246.667 67.392,246.667 67.259 C 246.667 67.127,246.844 66.812,247.062 66.559 C 247.566 65.973,247.866 66.263,249.316 68.735 C 249.536 69.110,249.799 69.472,249.900 69.539 C 250.007 69.611,250.014 69.665,249.917 69.669 C 249.825 69.674,249.862 69.769,250.000 69.881 C 250.137 69.993,250.275 70.197,250.305 70.334 C 250.335 70.471,250.467 70.643,250.597 70.717 C 250.727 70.790,250.835 70.977,250.838 71.133 C 250.841 71.289,251.057 71.627,251.319 71.884 C 251.581 72.141,251.840 72.577,251.896 72.853 C 251.951 73.132,252.071 73.309,252.165 73.251 C 252.257 73.194,252.333 73.252,252.333 73.381 C 252.333 73.510,252.480 73.748,252.660 73.911 C 252.840 74.073,252.974 74.254,252.957 74.312 C 252.941 74.369,253.113 74.697,253.339 75.040 L 253.750 75.663 256.333 75.663 L 258.917 75.663 259.273 75.112 L 259.630 74.561 259.131 73.655 C 258.856 73.157,258.545 72.695,258.441 72.628 C 258.336 72.560,258.325 72.503,258.417 72.500 C 258.508 72.497,258.476 72.427,258.345 72.344 C 258.214 72.261,258.087 72.057,258.062 71.891 C 258.038 71.725,257.939 71.563,257.842 71.531 C 257.746 71.499,257.667 71.378,257.667 71.262 C 257.667 71.146,257.479 70.834,257.250 70.568 C 257.021 70.301,256.834 70.039,256.834 69.984 C 256.833 69.929,256.685 69.713,256.503 69.504 C 256.322 69.295,256.221 69.047,256.279 68.953 C 256.340 68.855,256.303 68.832,256.192 68.901 C 256.078 68.971,256.000 68.914,256.000 68.760 C 256.000 68.617,255.926 68.500,255.837 68.500 C 255.747 68.500,255.626 68.313,255.568 68.083 C 255.511 67.854,255.397 67.667,255.315 67.667 C 255.234 67.667,255.167 67.566,255.167 67.442 C 255.167 67.319,255.018 67.084,254.837 66.920 C 254.656 66.756,254.545 66.562,254.591 66.488 C 254.636 66.414,254.574 66.293,254.453 66.219 C 254.331 66.144,254.101 65.821,253.940 65.500 C 253.636 64.893,253.096 64.065,252.509 63.307 C 252.321 63.063,252.167 62.782,252.167 62.682 C 252.167 62.582,252.092 62.500,252.000 62.500 C 251.908 62.500,251.833 62.398,251.833 62.272 C 251.833 62.147,251.683 61.854,251.500 61.621 C 251.062 61.065,251.063 61.060,251.805 59.908 C 252.156 59.363,252.587 58.654,252.763 58.333 C 252.939 58.012,253.226 57.619,253.401 57.458 C 253.575 57.298,253.656 57.167,253.580 57.167 C 253.504 57.167,253.606 56.992,253.806 56.779 C 254.006 56.566,254.119 56.341,254.057 56.279 C 253.995 56.217,254.032 56.167,254.139 56.167 C 254.246 56.167,254.333 56.054,254.333 55.917 C 254.333 55.779,254.390 55.666,254.458 55.665 C 254.527 55.664,254.726 55.366,254.899 55.003 C 255.073 54.640,255.291 54.390,255.383 54.448 C 255.476 54.505,255.502 54.471,255.441 54.373 C 255.380 54.274,255.443 54.080,255.582 53.942 C 255.720 53.804,255.833 53.606,255.833 53.502 C 255.833 53.398,255.920 53.367,256.026 53.433 C 256.143 53.505,256.173 53.478,256.103 53.365 C 256.040 53.263,256.159 53.007,256.369 52.798 C 256.579 52.588,256.731 52.360,256.708 52.292 C 256.685 52.223,256.733 52.167,256.813 52.167 C 256.894 52.167,257.053 51.942,257.167 51.667 C 257.281 51.392,257.444 51.167,257.530 51.167 C 257.616 51.167,257.640 51.092,257.583 51.000 C 257.527 50.908,257.560 50.833,257.657 50.833 C 257.754 50.833,257.833 50.721,257.833 50.583 C 257.833 50.446,257.913 50.333,258.010 50.333 C 258.107 50.333,258.143 50.263,258.090 50.178 C 258.038 50.093,258.145 49.917,258.329 49.788 C 258.514 49.659,258.626 49.515,258.578 49.467 C 258.531 49.420,258.606 49.286,258.746 49.170 C 258.886 49.054,259.000 48.856,259.000 48.730 C 259.000 48.603,259.057 48.500,259.127 48.500 C 259.560 48.500,259.648 47.828,259.289 47.261 L 258.917 46.674 256.417 46.712 C 254.001 46.749,253.911 46.763,253.752 47.125 C 253.662 47.331,253.530 47.500,253.460 47.500 C 253.391 47.500,253.333 47.580,253.333 47.678 C 253.333 47.776,253.111 48.179,252.840 48.574 C 252.569 48.968,252.381 49.326,252.424 49.369 C 252.467 49.411,252.352 49.583,252.168 49.749 C 251.984 49.915,251.833 50.145,251.833 50.258 C 251.833 50.371,251.716 50.509,251.573 50.564 C 251.429 50.619,251.355 50.733,251.407 50.818 C 251.459 50.903,251.314 51.195,251.084 51.468 C 250.855 51.741,250.667 52.048,250.667 52.149 C 250.667 52.250,250.592 52.333,250.500 52.333 C 250.408 52.333,250.333 52.496,250.333 52.694 C 250.333 52.893,250.284 53.006,250.223 52.945 C 250.162 52.884,249.973 53.116,249.802 53.459 C 249.285 54.499,249.059 54.836,248.952 54.729 C 248.895 54.673,248.800 54.824,248.740 55.064 C 248.680 55.304,248.569 55.500,248.493 55.500 C 248.418 55.500,248.307 55.653,248.248 55.840 C 248.151 56.147,248.085 56.111,247.581 55.473 C 247.273 55.085,247.059 54.707,247.104 54.633 C 247.149 54.560,247.109 54.500,247.014 54.500 C 246.919 54.500,246.718 54.260,246.566 53.966 C 246.414 53.673,246.187 53.330,246.060 53.203 C 245.934 53.077,245.868 52.912,245.914 52.837 C 245.960 52.763,245.875 52.654,245.725 52.597 C 245.575 52.539,245.495 52.450,245.547 52.398 C 245.599 52.346,245.390 51.974,245.083 51.572 C 244.776 51.169,244.476 50.689,244.418 50.503 C 244.359 50.318,244.236 50.167,244.146 50.167 C 244.055 50.167,244.027 50.092,244.083 50.000 C 244.140 49.908,244.103 49.833,244.001 49.833 C 243.899 49.833,243.738 49.608,243.642 49.333 C 243.546 49.058,243.395 48.833,243.307 48.833 C 243.219 48.833,243.185 48.772,243.232 48.696 C 243.278 48.621,243.170 48.434,242.991 48.281 C 242.813 48.128,242.664 47.909,242.661 47.793 C 242.659 47.678,242.475 47.377,242.253 47.125 L 241.849 46.667 239.181 46.667 C 236.585 46.667,236.506 46.677,236.306 47.042 M36.083 47.161 C 35.625 47.229,35.075 47.256,34.862 47.220 C 34.591 47.175,34.511 47.216,34.597 47.356 C 34.682 47.493,34.635 47.523,34.449 47.452 C 34.300 47.395,34.129 47.427,34.069 47.523 C 34.010 47.619,33.784 47.664,33.569 47.623 C 33.331 47.578,33.218 47.615,33.281 47.717 C 33.345 47.820,33.246 47.849,33.026 47.792 C 32.828 47.740,32.703 47.758,32.748 47.831 C 32.793 47.904,32.569 48.013,32.249 48.073 C 31.929 48.133,31.667 48.253,31.667 48.341 C 31.667 48.428,31.610 48.487,31.542 48.471 C 31.351 48.426,30.500 48.870,30.500 49.014 C 30.500 49.084,30.237 49.228,29.915 49.334 C 29.593 49.440,29.373 49.596,29.425 49.680 C 29.477 49.764,29.398 49.833,29.250 49.833 C 29.102 49.833,29.027 49.908,29.083 50.000 C 29.140 50.092,29.119 50.167,29.038 50.167 C 28.815 50.167,27.572 51.373,27.450 51.708 C 27.392 51.869,27.231 52.000,27.094 52.000 C 26.956 52.000,26.881 52.097,26.927 52.216 C 26.972 52.335,26.820 52.611,26.588 52.829 C 26.356 53.047,26.167 53.318,26.167 53.432 C 26.167 53.546,26.091 53.664,25.998 53.695 C 25.906 53.726,25.794 53.938,25.750 54.167 C 25.706 54.395,25.594 54.608,25.501 54.639 C 25.407 54.670,25.374 54.764,25.425 54.848 C 25.477 54.931,25.432 55.000,25.325 55.000 C 25.218 55.000,25.174 55.112,25.227 55.250 C 25.280 55.387,25.258 55.500,25.179 55.500 C 25.100 55.500,24.991 55.616,24.936 55.759 C 24.869 55.934,24.903 55.978,25.044 55.893 C 25.160 55.823,25.142 55.902,25.002 56.075 C 24.866 56.242,24.777 56.557,24.806 56.773 C 24.834 56.990,24.795 57.167,24.718 57.167 C 24.494 57.167,24.460 57.962,24.438 63.725 L 24.417 69.200 25.083 69.761 L 25.750 70.321 34.208 70.330 C 39.344 70.335,42.667 70.277,42.667 70.183 C 42.667 70.097,42.717 69.896,42.778 69.736 C 42.846 69.560,42.824 69.486,42.722 69.549 C 42.622 69.611,42.566 69.454,42.584 69.160 C 42.600 68.889,42.557 68.667,42.488 68.667 C 42.419 68.667,42.375 68.292,42.390 67.833 C 42.405 67.375,42.468 67.000,42.531 67.000 C 42.594 67.000,42.603 66.737,42.551 66.417 C 42.492 66.053,42.524 65.833,42.635 65.833 C 42.734 65.833,42.789 65.702,42.758 65.542 C 42.727 65.381,42.840 64.987,43.009 64.667 C 43.178 64.346,43.410 63.896,43.525 63.667 C 44.097 62.528,47.520 59.968,48.049 60.283 C 48.122 60.327,48.272 60.298,48.382 60.219 C 48.493 60.140,48.865 60.078,49.208 60.080 C 49.552 60.082,49.833 60.046,49.833 60.000 C 49.833 59.954,51.446 59.917,53.417 59.917 C 55.387 59.917,57.000 59.973,57.000 60.042 C 57.000 60.110,57.079 60.167,57.177 60.167 C 57.274 60.167,57.312 60.100,57.261 60.018 C 57.208 59.932,57.413 59.924,57.743 59.998 C 58.058 60.070,58.358 60.087,58.408 60.036 C 58.459 59.986,58.500 60.036,58.500 60.149 C 58.500 60.261,58.575 60.307,58.667 60.250 C 58.758 60.193,58.833 60.231,58.833 60.335 C 58.833 60.447,58.968 60.480,59.167 60.417 C 59.368 60.353,59.500 60.387,59.500 60.503 C 59.500 60.608,59.594 60.660,59.708 60.619 C 59.823 60.577,60.048 60.658,60.208 60.798 C 60.471 61.026,60.500 61.024,60.500 60.776 C 60.500 60.624,60.559 60.500,60.631 60.500 C 60.703 60.500,60.774 60.340,60.789 60.145 C 60.804 59.950,60.983 59.612,61.187 59.395 C 61.391 59.178,61.506 59.000,61.442 59.000 C 61.378 59.000,61.449 58.813,61.599 58.583 C 61.749 58.354,61.807 58.166,61.728 58.164 C 61.648 58.163,61.696 58.090,61.833 58.004 C 61.971 57.917,62.087 57.787,62.092 57.714 C 62.111 57.396,62.368 56.833,62.493 56.833 C 62.569 56.833,62.682 56.628,62.745 56.377 C 62.808 56.126,62.948 55.866,63.055 55.799 C 63.162 55.733,63.251 55.620,63.251 55.548 C 63.252 55.476,63.383 55.231,63.543 55.005 C 63.703 54.778,63.833 54.641,63.833 54.700 C 63.833 54.759,64.050 54.607,64.315 54.362 C 65.006 53.722,65.300 53.500,65.456 53.500 C 65.531 53.500,65.716 53.356,65.867 53.180 C 66.018 53.003,66.277 52.879,66.442 52.903 C 66.608 52.928,66.848 52.842,66.976 52.714 C 67.105 52.586,67.310 52.519,67.433 52.566 C 67.556 52.614,67.698 52.584,67.750 52.500 C 67.802 52.416,67.947 52.387,68.072 52.435 C 68.197 52.483,68.349 52.443,68.410 52.345 C 68.470 52.247,68.443 52.167,68.349 52.167 C 68.255 52.167,67.988 51.885,67.754 51.542 C 67.520 51.198,67.261 50.917,67.177 50.917 C 67.027 50.917,66.931 50.839,65.917 49.888 C 65.359 49.365,63.722 48.333,63.451 48.333 C 63.355 48.333,63.143 48.213,62.981 48.066 C 62.819 47.919,62.410 47.772,62.074 47.740 C 61.738 47.707,61.274 47.557,61.044 47.406 C 60.755 47.217,60.668 47.202,60.761 47.358 C 60.867 47.534,60.844 47.542,60.657 47.398 C 60.525 47.296,60.248 47.227,60.042 47.245 C 59.835 47.263,59.667 47.223,59.667 47.155 C 59.667 46.994,37.165 47.000,36.083 47.161 M119.542 51.722 C 119.702 51.731,119.833 51.793,119.833 51.859 C 119.833 51.926,119.983 51.952,120.167 51.917 C 120.350 51.881,120.500 51.921,120.500 52.004 C 120.500 52.088,120.598 52.119,120.718 52.073 C 120.838 52.027,121.115 52.144,121.333 52.333 C 121.552 52.523,121.822 52.643,121.935 52.599 C 122.047 52.556,122.185 52.640,122.240 52.784 C 122.296 52.929,122.383 53.006,122.435 52.954 C 122.602 52.787,124.333 54.325,124.333 54.642 C 124.333 54.747,124.410 54.833,124.504 54.833 C 124.598 54.833,124.749 55.002,124.839 55.208 C 124.930 55.415,125.188 55.883,125.414 56.250 C 125.767 56.825,125.967 57.336,126.293 58.500 C 126.474 59.147,126.449 63.083,126.261 63.566 C 126.150 63.851,126.069 64.196,126.081 64.333 C 126.094 64.471,126.034 64.677,125.948 64.792 C 125.863 64.906,125.840 65.000,125.899 65.000 C 125.958 65.000,125.816 65.375,125.583 65.833 C 125.351 66.292,125.087 66.667,124.997 66.667 C 124.907 66.667,124.833 66.779,124.833 66.917 C 124.833 67.054,124.683 67.317,124.500 67.500 C 124.317 67.683,124.201 67.833,124.244 67.833 C 124.287 67.833,124.155 68.007,123.952 68.219 C 123.749 68.431,123.537 68.583,123.481 68.556 C 123.424 68.530,123.243 68.657,123.077 68.840 C 122.689 69.269,120.999 70.186,120.811 70.070 C 120.732 70.020,120.667 70.068,120.667 70.175 C 120.667 70.282,120.554 70.326,120.417 70.273 C 120.279 70.220,120.167 70.234,120.167 70.304 C 120.167 70.505,116.952 70.698,116.593 70.519 C 116.507 70.476,116.199 70.425,115.908 70.406 C 115.201 70.359,114.667 70.179,114.667 69.989 C 114.667 69.903,114.475 69.833,114.240 69.833 C 113.998 69.833,113.858 69.761,113.917 69.667 C 113.973 69.575,113.865 69.500,113.677 69.500 C 113.488 69.500,113.183 69.350,113.000 69.167 C 112.817 68.983,112.619 68.833,112.561 68.833 C 112.503 68.833,112.222 68.574,111.936 68.256 C 111.164 67.399,111.000 67.192,111.000 67.074 C 111.000 67.016,110.845 66.750,110.655 66.484 C 110.466 66.218,110.358 66.000,110.417 66.000 C 110.475 66.000,110.381 65.794,110.208 65.542 C 109.830 64.991,109.445 63.724,109.585 63.497 C 109.641 63.407,109.617 63.333,109.531 63.333 C 109.319 63.333,109.338 59.070,109.554 58.337 C 109.649 58.014,109.714 57.694,109.697 57.625 C 109.680 57.556,109.729 57.500,109.806 57.500 C 109.882 57.500,109.944 57.402,109.944 57.282 C 109.944 56.821,110.899 55.142,111.572 54.420 C 111.959 54.004,112.238 53.627,112.193 53.582 C 112.148 53.537,112.227 53.500,112.369 53.500 C 112.510 53.500,112.751 53.331,112.904 53.125 C 113.057 52.919,113.133 52.850,113.072 52.973 C 113.012 53.096,113.285 52.962,113.680 52.676 C 114.075 52.390,114.491 52.192,114.605 52.235 C 114.719 52.279,114.836 52.243,114.865 52.156 C 114.919 51.992,115.403 51.849,116.216 51.758 C 116.473 51.730,116.725 51.664,116.777 51.612 C 116.829 51.560,117.406 51.560,118.061 51.612 C 118.715 51.664,119.381 51.713,119.542 51.722 M221.292 51.683 C 221.406 51.705,221.500 51.793,221.500 51.879 C 221.500 51.965,221.603 51.996,221.730 51.948 C 221.856 51.899,222.025 51.919,222.105 51.993 C 222.185 52.066,222.531 52.216,222.875 52.326 C 223.219 52.436,223.500 52.599,223.500 52.689 C 223.500 52.779,223.571 52.809,223.658 52.755 C 223.745 52.701,223.896 52.806,223.993 52.987 C 224.090 53.168,224.375 53.415,224.626 53.535 C 225.155 53.787,226.337 55.462,226.214 55.783 C 226.168 55.902,226.227 56.000,226.343 56.000 C 226.460 56.000,226.508 56.047,226.450 56.105 C 226.392 56.163,226.435 56.369,226.544 56.564 C 226.751 56.929,226.767 56.999,226.892 58.039 L 226.966 58.660 219.004 58.705 C 211.999 58.745,211.048 58.720,211.091 58.500 C 211.119 58.362,211.153 58.250,211.168 58.250 C 211.182 58.250,211.228 58.025,211.270 57.750 C 211.312 57.475,211.433 56.987,211.540 56.667 C 211.647 56.346,211.719 56.025,211.699 55.954 C 211.680 55.882,211.777 55.781,211.915 55.728 C 212.053 55.674,212.167 55.487,212.167 55.310 C 212.167 55.134,212.279 54.947,212.416 54.894 C 212.553 54.841,212.629 54.741,212.585 54.670 C 212.542 54.599,212.775 54.288,213.104 53.979 C 213.433 53.670,213.823 53.285,213.971 53.125 C 214.120 52.965,214.370 52.833,214.529 52.833 C 214.687 52.833,214.893 52.702,214.987 52.542 C 215.080 52.381,215.159 52.312,215.162 52.387 C 215.164 52.462,215.285 52.406,215.429 52.262 C 215.573 52.118,215.910 52.000,216.179 52.000 C 216.447 52.000,216.667 51.929,216.667 51.843 C 216.667 51.756,216.817 51.715,217.000 51.750 C 217.183 51.785,217.333 51.745,217.333 51.660 C 217.333 51.531,220.583 51.550,221.292 51.683 " stroke="none" fill="#3ca464" fill-rule="evenodd"></path><path id="path2" d="" stroke="none" fill="#3ca46c" fill-rule="evenodd"></path><path id="path3" d="M250.956 51.376 L 250.662 51.917 250.998 51.523 C 251.283 51.188,251.436 50.831,251.292 50.834 C 251.269 50.835,251.118 51.079,250.956 51.376 M225.000 53.910 C 225.000 53.976,225.150 54.221,225.333 54.455 C 225.517 54.688,225.667 54.824,225.667 54.757 C 225.667 54.690,225.517 54.445,225.333 54.212 C 225.150 53.979,225.000 53.843,225.000 53.910 M64.479 64.083 C 64.468 64.129,64.448 64.223,64.435 64.292 C 64.422 64.360,64.352 64.510,64.279 64.625 C 64.204 64.744,64.223 64.833,64.323 64.833 C 64.421 64.833,64.506 64.777,64.513 64.708 C 64.520 64.640,64.551 64.452,64.581 64.292 C 64.629 64.041,64.537 63.852,64.479 64.083 M50.109 65.208 C 50.152 65.277,51.640 65.333,53.417 65.333 C 55.193 65.333,56.682 65.277,56.724 65.208 C 56.767 65.140,55.278 65.083,53.417 65.083 C 51.555 65.083,50.067 65.140,50.109 65.208 M207.268 69.825 C 207.370 69.967,207.537 70.233,207.638 70.417 C 207.740 70.600,207.825 70.660,207.828 70.551 C 207.831 70.441,207.665 70.175,207.458 69.959 C 207.252 69.744,207.167 69.683,207.268 69.825 M42.732 70.168 C 42.632 70.268,39.389 70.347,34.327 70.375 L 26.083 70.420 34.448 70.460 C 40.234 70.488,42.848 70.445,42.924 70.322 C 43.073 70.080,42.933 69.967,42.732 70.168 M51.375 70.457 C 52.085 70.488,53.248 70.488,53.958 70.457 C 54.669 70.426,54.087 70.400,52.667 70.400 C 51.246 70.400,50.665 70.426,51.375 70.457 " stroke="none" fill="#38ac64" fill-rule="evenodd"></path><path id="path4" d="M38.814 19.331 C 38.504 19.604,38.310 19.829,38.384 19.831 C 38.458 19.832,38.758 19.609,39.051 19.334 C 39.742 18.686,39.549 18.683,38.814 19.331 M56.703 19.830 C 56.817 20.012,57.022 20.203,57.159 20.256 C 57.296 20.309,57.229 20.160,57.009 19.926 C 56.529 19.415,56.424 19.382,56.703 19.830 M58.664 22.277 C 58.758 22.324,58.798 22.422,58.753 22.495 C 58.707 22.569,58.801 22.731,58.960 22.856 C 59.228 23.066,59.231 23.059,59.000 22.766 C 58.862 22.592,58.774 22.406,58.804 22.354 C 58.834 22.301,58.776 22.243,58.675 22.225 C 58.561 22.204,58.557 22.224,58.664 22.277 M60.363 30.184 C 60.358 30.561,60.389 30.833,60.432 30.791 C 60.585 30.637,60.662 29.500,60.519 29.500 C 60.438 29.500,60.368 29.808,60.363 30.184 M60.055 32.375 C 60.033 32.809,60.055 32.851,60.169 32.583 C 60.350 32.155,60.367 31.833,60.208 31.834 C 60.140 31.834,60.071 32.078,60.055 32.375 M35.000 32.397 C 35.000 32.534,35.076 32.694,35.169 32.752 C 35.263 32.809,35.296 32.926,35.243 33.012 C 35.190 33.097,35.226 33.167,35.323 33.167 C 35.548 33.167,35.553 32.886,35.331 32.748 C 35.237 32.691,35.201 32.579,35.250 32.500 C 35.299 32.421,35.263 32.309,35.169 32.252 C 35.076 32.194,35.000 32.259,35.000 32.397 M59.442 34.000 C 59.304 34.275,59.254 34.500,59.330 34.500 C 59.405 34.500,59.546 34.275,59.642 34.000 C 59.738 33.725,59.788 33.500,59.754 33.500 C 59.719 33.500,59.579 33.725,59.442 34.000 M36.174 35.181 C 36.277 35.372,36.394 35.495,36.434 35.455 C 36.551 35.338,36.314 34.833,36.143 34.833 C 36.058 34.833,36.072 34.990,36.174 35.181 M36.745 36.156 C 37.017 36.683,37.333 36.963,37.333 36.677 C 37.333 36.579,37.254 36.500,37.157 36.500 C 37.060 36.500,37.027 36.425,37.083 36.333 C 37.140 36.242,37.107 36.167,37.010 36.167 C 36.913 36.167,36.833 36.054,36.833 35.917 C 36.833 35.779,36.756 35.667,36.662 35.667 C 36.564 35.667,36.599 35.875,36.745 36.156 M37.500 37.133 C 37.500 37.222,37.762 37.494,38.083 37.739 C 38.404 37.983,38.667 38.159,38.667 38.128 C 38.667 38.098,38.404 37.826,38.083 37.523 C 37.762 37.221,37.500 37.045,37.500 37.133 M57.240 37.403 C 57.063 37.533,56.961 37.684,57.015 37.737 C 57.069 37.791,57.249 37.685,57.416 37.501 C 57.770 37.110,57.697 37.069,57.240 37.403 M55.917 38.745 C 55.642 38.970,55.476 39.157,55.549 39.161 C 55.622 39.164,55.883 38.979,56.131 38.750 C 56.708 38.215,56.567 38.212,55.917 38.745 M46.226 41.781 C 46.392 41.947,47.000 41.969,46.899 41.805 C 46.852 41.729,46.656 41.667,46.462 41.667 C 46.269 41.667,46.163 41.718,46.226 41.781 M47.833 41.818 C 47.833 41.980,48.796 42.028,48.894 41.870 C 48.939 41.797,48.719 41.730,48.405 41.721 C 48.091 41.713,47.833 41.756,47.833 41.818 M168.500 46.231 C 168.500 46.267,168.721 46.328,168.991 46.368 C 169.261 46.407,169.444 46.378,169.398 46.303 C 169.315 46.170,168.500 46.104,168.500 46.231 M220.847 46.393 C 221.032 46.551,222.007 46.646,221.915 46.497 C 221.859 46.407,221.581 46.333,221.296 46.333 C 221.011 46.333,220.809 46.360,220.847 46.393 M131.833 46.787 C 131.833 46.997,132.310 47.412,132.422 47.301 C 132.466 47.256,132.352 47.084,132.168 46.918 C 131.984 46.751,131.833 46.692,131.833 46.787 M259.003 46.773 C 259.001 46.878,259.154 47.140,259.343 47.357 C 259.612 47.666,259.649 47.679,259.515 47.417 C 259.226 46.851,259.005 46.574,259.003 46.773 M122.072 47.265 C 122.727 47.637,123.667 48.024,123.667 47.922 C 123.667 47.807,122.503 47.232,122.000 47.099 C 121.624 46.999,121.631 47.015,122.072 47.265 M182.505 47.160 C 182.108 47.411,182.379 47.464,182.833 47.224 C 183.063 47.103,183.138 47.005,183.000 47.005 C 182.862 47.005,182.640 47.075,182.505 47.160 M32.833 47.750 C 32.512 47.874,32.362 47.977,32.500 47.980 C 32.637 47.983,32.975 47.882,33.250 47.756 C 33.894 47.461,33.594 47.457,32.833 47.750 M161.405 47.905 C 161.228 48.034,161.121 48.177,161.167 48.223 C 161.213 48.269,161.395 48.200,161.571 48.071 C 161.748 47.942,161.855 47.799,161.809 47.753 C 161.763 47.708,161.581 47.776,161.405 47.905 M252.939 48.208 L 252.639 48.750 252.982 48.333 C 253.287 47.964,253.422 47.667,253.286 47.667 C 253.260 47.667,253.104 47.910,252.939 48.208 M125.500 49.278 C 125.500 49.491,126.140 50.083,126.250 49.972 C 126.295 49.927,126.145 49.714,125.916 49.499 C 125.687 49.284,125.500 49.185,125.500 49.278 M176.000 49.284 C 176.000 49.476,176.473 49.921,176.566 49.815 C 176.598 49.779,176.483 49.606,176.312 49.429 C 176.140 49.253,176.000 49.187,176.000 49.284 M65.729 49.683 C 65.881 49.921,66.210 50.208,66.461 50.320 C 66.711 50.433,66.842 50.463,66.750 50.386 C 66.658 50.310,66.329 50.023,66.019 49.749 C 65.474 49.268,65.464 49.265,65.729 49.683 M251.982 49.708 C 251.786 50.081,251.787 50.082,252.142 49.766 C 252.540 49.413,252.576 49.333,252.339 49.333 C 252.251 49.333,252.090 49.502,251.982 49.708 M28.706 50.111 C 28.591 50.158,28.418 50.358,28.322 50.556 C 28.174 50.864,28.180 50.878,28.366 50.655 C 28.485 50.510,28.733 50.306,28.917 50.201 C 29.249 50.011,29.106 49.950,28.706 50.111 M177.110 50.667 C 177.272 50.942,177.469 51.167,177.547 51.167 C 177.625 51.167,177.529 50.942,177.333 50.667 C 177.138 50.392,176.941 50.167,176.896 50.167 C 176.851 50.167,176.947 50.392,177.110 50.667 M244.583 50.833 C 244.726 51.108,244.879 51.333,244.925 51.333 C 244.971 51.333,244.892 51.108,244.750 50.833 C 244.608 50.558,244.454 50.333,244.408 50.333 C 244.362 50.333,244.441 50.558,244.583 50.833 M178.029 50.850 C 177.720 51.343,177.857 51.380,178.216 50.900 C 178.381 50.680,178.455 50.500,178.381 50.500 C 178.307 50.500,178.149 50.657,178.029 50.850 M220.417 51.667 C 220.915 51.881,221.331 51.881,221.000 51.667 C 220.862 51.578,220.600 51.509,220.417 51.514 L 220.083 51.523 220.417 51.667 M189.833 52.229 C 189.833 52.274,190.058 52.471,190.333 52.667 C 190.608 52.862,190.833 52.959,190.833 52.881 C 190.833 52.802,190.608 52.606,190.333 52.443 C 190.058 52.281,189.833 52.184,189.833 52.229 M123.000 53.379 C 123.000 53.411,123.244 53.616,123.542 53.834 C 123.877 54.079,123.993 54.119,123.847 53.939 C 123.625 53.666,123.000 53.253,123.000 53.379 M213.198 53.853 C 212.906 54.139,212.667 54.451,212.667 54.548 C 212.667 54.644,212.685 54.690,212.708 54.651 C 212.731 54.612,213.008 54.299,213.324 53.956 C 214.021 53.201,213.936 53.132,213.198 53.853 M239.333 53.384 C 239.333 53.412,239.521 53.689,239.750 54.000 C 239.979 54.311,240.167 54.484,240.167 54.386 C 240.167 54.288,240.054 54.114,239.917 54.000 C 239.779 53.886,239.667 53.689,239.667 53.563 C 239.667 53.437,239.592 53.333,239.500 53.333 C 239.408 53.333,239.333 53.356,239.333 53.384 M255.273 54.338 C 255.113 54.611,255.042 54.833,255.116 54.832 C 255.252 54.831,255.703 53.981,255.614 53.892 C 255.588 53.865,255.434 54.066,255.273 54.338 M63.451 55.100 C 63.286 55.320,63.227 55.500,63.320 55.500 C 63.488 55.500,63.909 54.852,63.805 54.752 C 63.775 54.723,63.615 54.879,63.451 55.100 M205.870 55.120 C 205.513 56.067,205.334 56.723,205.412 56.801 C 205.456 56.845,205.524 56.777,205.563 56.649 C 205.602 56.521,205.750 56.043,205.890 55.587 C 206.168 54.688,206.154 54.367,205.870 55.120 M225.667 54.714 C 225.667 54.952,226.065 55.667,226.197 55.667 C 226.276 55.667,226.212 55.460,226.054 55.208 C 225.680 54.610,225.667 54.593,225.667 54.714 M232.345 55.615 C 232.339 55.816,232.408 56.027,232.500 56.083 C 232.697 56.205,232.697 56.042,232.500 55.583 C 232.362 55.262,232.356 55.263,232.345 55.615 M125.506 56.523 C 125.503 56.581,125.610 56.881,125.743 57.189 C 125.877 57.498,125.987 57.637,125.988 57.500 C 125.988 57.260,125.518 56.306,125.506 56.523 M179.548 58.583 C 179.549 59.042,179.581 59.209,179.620 58.956 C 179.658 58.703,179.657 58.328,179.617 58.123 C 179.578 57.918,179.546 58.125,179.548 58.583 M61.056 59.542 C 60.875 59.831,60.835 60.185,60.995 60.087 C 61.128 60.004,61.351 59.333,61.244 59.333 C 61.212 59.333,61.128 59.427,61.056 59.542 M66.525 60.094 C 66.414 60.338,66.402 60.477,66.498 60.418 C 66.742 60.267,67.036 59.667,66.866 59.667 C 66.786 59.667,66.633 59.859,66.525 60.094 M49.833 60.035 C 49.833 60.100,51.446 60.153,53.417 60.153 C 55.387 60.153,57.000 60.100,57.000 60.035 C 57.000 59.970,55.387 59.917,53.417 59.917 C 51.446 59.917,49.833 59.970,49.833 60.035 M73.738 61.929 C 73.882 62.073,74.000 62.273,74.000 62.373 C 74.000 62.473,74.044 62.512,74.097 62.459 C 74.232 62.324,73.860 61.667,73.649 61.667 C 73.554 61.667,73.594 61.785,73.738 61.929 M211.000 63.833 C 211.000 64.108,211.062 64.333,211.138 64.333 C 211.214 64.333,211.243 64.108,211.202 63.833 C 211.162 63.558,211.100 63.333,211.064 63.333 C 211.029 63.333,211.000 63.558,211.000 63.833 M64.597 64.042 L 64.337 64.583 64.668 64.190 C 64.851 63.973,65.000 63.730,65.000 63.648 C 65.000 63.363,64.856 63.504,64.597 64.042 M109.769 64.583 C 109.828 64.858,109.950 65.158,110.040 65.250 C 110.148 65.359,110.162 65.274,110.082 65.000 C 109.885 64.327,109.646 64.010,109.769 64.583 M42.912 64.951 C 42.730 65.373,42.671 65.718,42.804 65.585 C 42.866 65.523,42.918 65.422,42.919 65.361 C 42.921 65.300,42.984 65.151,43.061 65.031 C 43.137 64.910,43.164 64.775,43.121 64.732 C 43.077 64.688,42.983 64.787,42.912 64.951 M49.667 65.132 C 49.667 65.197,51.354 65.250,53.417 65.250 C 55.479 65.250,57.167 65.197,57.167 65.132 C 57.167 65.067,55.479 65.013,53.417 65.013 C 51.354 65.013,49.667 65.067,49.667 65.132 M48.810 65.503 L 48.417 65.839 48.875 65.643 C 49.127 65.535,49.333 65.384,49.333 65.307 C 49.333 65.099,49.244 65.132,48.810 65.503 M211.468 65.583 C 211.553 65.767,211.663 66.029,211.714 66.167 C 211.794 66.383,211.809 66.381,211.820 66.157 C 211.827 66.014,211.717 65.751,211.574 65.574 C 211.319 65.255,211.317 65.255,211.468 65.583 M47.831 66.505 C 47.537 67.216,47.712 67.281,48.030 66.579 C 48.175 66.260,48.236 66.000,48.167 66.000 C 48.097 66.000,47.946 66.227,47.831 66.505 M246.898 66.755 C 246.746 66.987,246.654 67.210,246.695 67.250 C 246.735 67.290,246.899 67.100,247.060 66.828 C 247.416 66.226,247.284 66.166,246.898 66.755 M104.417 67.500 C 104.559 67.775,104.713 68.000,104.759 68.000 C 104.804 68.000,104.726 67.775,104.583 67.500 C 104.441 67.225,104.287 67.000,104.241 67.000 C 104.196 67.000,104.274 67.225,104.417 67.500 M59.603 67.628 C 59.705 67.695,59.835 67.900,59.892 68.084 C 59.950 68.267,60.150 68.513,60.337 68.630 C 60.633 68.815,60.619 68.755,60.233 68.172 C 59.989 67.802,59.705 67.501,59.603 67.503 C 59.466 67.504,59.466 67.538,59.603 67.628 M42.370 68.172 C 42.362 68.444,42.416 68.667,42.490 68.667 C 42.657 68.667,42.670 67.855,42.504 67.753 C 42.438 67.712,42.377 67.901,42.370 68.172 M68.263 68.125 C 68.212 68.285,68.162 68.492,68.150 68.583 C 68.139 68.675,67.982 68.957,67.802 69.211 C 67.621 69.464,67.511 69.764,67.557 69.877 C 67.618 70.029,67.644 70.024,67.654 69.859 C 67.661 69.736,67.822 69.417,68.011 69.151 C 68.201 68.884,68.305 68.667,68.242 68.667 C 68.180 68.667,68.251 68.479,68.401 68.250 C 68.551 68.021,68.603 67.833,68.515 67.833 C 68.427 67.833,68.314 67.965,68.263 68.125 M123.749 68.168 C 123.323 68.638,123.504 68.682,123.952 68.217 C 124.155 68.006,124.261 67.833,124.187 67.833 C 124.112 67.833,123.915 67.984,123.749 68.168 M47.591 68.154 C 47.472 68.346,47.833 69.167,48.036 69.167 C 48.118 69.167,48.074 69.008,47.939 68.814 C 47.803 68.620,47.732 68.358,47.780 68.231 C 47.880 67.972,47.739 67.915,47.591 68.154 M206.681 68.823 C 206.855 69.184,207.075 69.527,207.169 69.585 C 207.264 69.643,207.174 69.348,206.971 68.929 C 206.767 68.510,206.547 68.167,206.482 68.167 C 206.417 68.167,206.506 68.462,206.681 68.823 M112.833 68.990 C 112.833 69.175,113.487 69.568,113.603 69.453 C 113.644 69.412,113.487 69.254,113.255 69.102 C 113.023 68.950,112.833 68.900,112.833 68.990 M239.099 69.250 C 238.949 69.479,238.851 69.667,238.883 69.667 C 238.914 69.667,239.103 69.479,239.302 69.250 C 239.501 69.021,239.599 68.833,239.518 68.833 C 239.438 68.833,239.249 69.021,239.099 69.250 M80.125 70.291 C 80.881 70.322,82.119 70.322,82.875 70.291 C 83.631 70.260,83.012 70.235,81.500 70.235 C 79.987 70.235,79.369 70.260,80.125 70.291 M230.162 70.980 C 229.604 71.572,229.467 71.882,229.990 71.371 C 230.296 71.071,230.518 70.799,230.482 70.767 C 230.446 70.736,230.302 70.831,230.162 70.980 M66.813 71.000 C 66.801 71.092,66.782 71.235,66.771 71.319 C 66.759 71.403,66.694 71.528,66.625 71.597 C 66.556 71.666,66.502 71.803,66.505 71.903 C 66.510 72.067,66.899 71.527,66.915 71.333 C 66.919 71.287,66.981 71.156,67.054 71.042 C 67.129 70.923,67.110 70.833,67.010 70.833 C 66.913 70.833,66.824 70.908,66.813 71.000 M208.419 71.380 C 208.672 71.726,208.915 71.974,208.958 71.931 C 209.001 71.888,208.793 71.605,208.497 71.302 L 207.958 70.750 208.419 71.380 M209.333 72.417 C 209.447 72.554,209.616 72.667,209.707 72.667 C 209.800 72.667,209.782 72.556,209.667 72.417 C 209.553 72.279,209.384 72.167,209.293 72.167 C 209.200 72.167,209.218 72.277,209.333 72.417 M242.950 73.250 C 242.797 73.571,242.701 73.833,242.736 73.833 C 242.772 73.833,242.955 73.571,243.145 73.250 C 243.334 72.929,243.430 72.667,243.359 72.667 C 243.287 72.667,243.103 72.929,242.950 73.250 M259.527 74.292 C 259.553 74.452,259.506 74.696,259.422 74.833 C 259.293 75.044,259.311 75.050,259.534 74.869 C 259.685 74.747,259.762 74.514,259.713 74.327 C 259.607 73.922,259.462 73.894,259.527 74.292 M58.102 74.755 C 58.250 74.981,58.457 75.161,58.561 75.154 C 58.682 75.145,58.675 75.110,58.542 75.056 C 58.427 75.010,58.333 74.874,58.333 74.754 C 58.333 74.634,58.221 74.492,58.083 74.440 C 57.869 74.358,57.872 74.404,58.102 74.755 M173.833 75.249 C 174.048 75.478,174.260 75.629,174.305 75.584 C 174.416 75.473,173.825 74.833,173.612 74.833 C 173.518 74.833,173.618 75.021,173.833 75.249 M214.353 75.242 C 214.409 75.298,214.704 75.415,215.008 75.502 C 215.312 75.589,215.491 75.597,215.405 75.519 C 215.228 75.357,214.196 75.085,214.353 75.242 M79.050 75.624 C 79.949 75.654,81.374 75.654,82.217 75.624 C 83.060 75.594,82.325 75.569,80.583 75.569 C 78.842 75.570,78.152 75.594,79.050 75.624 M118.833 75.804 C 118.833 75.880,119.058 75.909,119.333 75.869 C 119.608 75.829,119.833 75.767,119.833 75.731 C 119.833 75.696,119.608 75.667,119.333 75.667 C 119.058 75.667,118.833 75.729,118.833 75.804 M63.985 76.799 C 63.521 77.341,63.389 77.622,63.727 77.347 C 63.994 77.130,64.415 76.500,64.293 76.500 C 64.264 76.500,64.126 76.634,63.985 76.799 M59.812 77.116 C 59.916 77.317,60.081 77.531,60.179 77.591 C 60.510 77.796,60.435 77.584,60.028 77.167 C 59.660 76.789,59.640 76.784,59.812 77.116 M63.008 77.740 C 62.899 77.872,62.683 77.936,62.529 77.882 C 62.301 77.802,62.288 77.825,62.460 78.011 C 62.636 78.200,62.731 78.176,63.039 77.869 C 63.242 77.666,63.362 77.500,63.307 77.500 C 63.252 77.500,63.118 77.608,63.008 77.740 " stroke="none" fill="#34a464" fill-rule="evenodd"></path></g></svg>